<svg xmlns="http://www.w3.org/2000/svg" viewBox="0 0 850 380">
  <defs>
    <linearGradient id="backboneGrad" x1="0%" y1="0%" x2="100%" y2="100%">
      <stop offset="0%" style="stop-color:#3b82f6"/>
      <stop offset="100%" style="stop-color:#1d4ed8"/>
    </linearGradient>
    <linearGradient id="neckGrad" x1="0%" y1="0%" x2="100%" y2="100%">
      <stop offset="0%" style="stop-color:#22c55e"/>
      <stop offset="100%" style="stop-color:#16a34a"/>
    </linearGradient>
    <linearGradient id="headGrad" x1="0%" y1="0%" x2="100%" y2="100%">
      <stop offset="0%" style="stop-color:#f59e0b"/>
      <stop offset="100%" style="stop-color:#d97706"/>
    </linearGradient>
    <filter id="glow">
      <feGaussianBlur stdDeviation="2" result="blur"/>
      <feMerge><feMergeNode in="blur"/><feMergeNode in="SourceGraphic"/></feMerge>
    </filter>
  </defs>
  
  <rect width="850" height="380" fill="#0f172a"/>
  
  <text x="425" y="30" text-anchor="middle" font-family="Arial, sans-serif" font-size="22" font-weight="bold" fill="#f8fafc">YOLO: You Only Look Once</text>
  <text x="425" y="52" text-anchor="middle" font-family="Arial, sans-serif" font-size="12" fill="#64748b">Real-time Object Detection in One Forward Pass</text>
  
  <!-- Input Image -->
  <g transform="translate(30, 80)">
    <rect width="100" height="100" rx="6" fill="#334155" stroke="#475569" stroke-width="2"/>
    <!-- Objects in image -->
    <rect x="15" y="20" width="30" height="35" rx="2" stroke="#ef4444" stroke-width="2" fill="none"/>
    <rect x="55" y="40" width="25" height="40" rx="2" stroke="#22c55e" stroke-width="2" fill="none"/>
    <rect x="30" y="65" width="40" height="25" rx="2" stroke="#3b82f6" stroke-width="2" fill="none"/>
    <text x="50" y="120" text-anchor="middle" font-family="Arial, sans-serif" font-size="10" fill="#94a3b8">Input 640×640</text>
  </g>
  
  <!-- Arrow -->
  <path d="M135 130 L165 130" stroke="#60a5fa" stroke-width="2"/>
  <polygon points="165,125 180,130 165,135" fill="#60a5fa"/>
  
  <!-- Backbone -->
  <g transform="translate(185, 65)">
    <rect width="140" height="130" rx="10" fill="url(#backboneGrad)" filter="url(#glow)"/>
    <text x="70" y="25" text-anchor="middle" font-family="Arial, sans-serif" font-size="13" font-weight="bold" fill="#fff">Backbone</text>
    <text x="70" y="45" text-anchor="middle" font-family="Arial, sans-serif" font-size="10" fill="#dbeafe">CSPDarknet</text>
    
    <!-- Feature levels -->
    <rect x="20" y="60" width="100" height="18" rx="3" fill="#1d4ed8" opacity="0.8"/>
    <text x="70" y="73" text-anchor="middle" font-family="Arial, sans-serif" font-size="8" fill="#fff">P3: 80×80</text>
    <rect x="20" y="82" width="100" height="18" rx="3" fill="#2563eb" opacity="0.8"/>
    <text x="70" y="95" text-anchor="middle" font-family="Arial, sans-serif" font-size="8" fill="#fff">P4: 40×40</text>
    <rect x="20" y="104" width="100" height="18" rx="3" fill="#3b82f6" opacity="0.8"/>
    <text x="70" y="117" text-anchor="middle" font-family="Arial, sans-serif" font-size="8" fill="#fff">P5: 20×20</text>
  </g>
  
  <!-- Arrow -->
  <path d="M330 130 L360 130" stroke="#60a5fa" stroke-width="2"/>
  <polygon points="360,125 375,130 360,135" fill="#60a5fa"/>
  
  <!-- Neck (FPN + PAN) -->
  <g transform="translate(380, 65)">
    <rect width="120" height="130" rx="10" fill="url(#neckGrad)" filter="url(#glow)"/>
    <text x="60" y="25" text-anchor="middle" font-family="Arial, sans-serif" font-size="13" font-weight="bold" fill="#fff">Neck</text>
    <text x="60" y="43" text-anchor="middle" font-family="Arial, sans-serif" font-size="9" fill="#d1fae5">FPN + PAN</text>
    
    <!-- Bidirectional arrows -->
    <path d="M30 60 L30 110" stroke="#fff" stroke-width="2"/>
    <path d="M30 60 L35 70 M30 60 L25 70" stroke="#fff" stroke-width="1"/>
    <path d="M30 110 L35 100 M30 110 L25 100" stroke="#fff" stroke-width="1"/>
    
    <rect x="45" y="55" width="55" height="16" rx="2" fill="#16a34a"/>
    <text x="72" y="67" text-anchor="middle" font-family="Arial, sans-serif" font-size="7" fill="#fff">Small obj</text>
    <rect x="45" y="77" width="55" height="16" rx="2" fill="#22c55e"/>
    <text x="72" y="89" text-anchor="middle" font-family="Arial, sans-serif" font-size="7" fill="#fff">Med obj</text>
    <rect x="45" y="99" width="55" height="16" rx="2" fill="#34d399"/>
    <text x="72" y="111" text-anchor="middle" font-family="Arial, sans-serif" font-size="7" fill="#fff">Large obj</text>
  </g>
  
  <!-- Arrow -->
  <path d="M505 130 L535 130" stroke="#34d399" stroke-width="2"/>
  <polygon points="535,125 550,130 535,135" fill="#34d399"/>
  
  <!-- Detection Head -->
  <g transform="translate(555, 65)">
    <rect width="130" height="130" rx="10" fill="url(#headGrad)" filter="url(#glow)"/>
    <text x="65" y="25" text-anchor="middle" font-family="Arial, sans-serif" font-size="13" font-weight="bold" fill="#fff">Head</text>
    <text x="65" y="43" text-anchor="middle" font-family="Arial, sans-serif" font-size="9" fill="#fef3c7">Detection</text>
    
    <text x="65" y="65" text-anchor="middle" font-family="Arial, sans-serif" font-size="9" fill="#fff">Per anchor:</text>
    <rect x="15" y="75" width="100" height="15" rx="2" fill="#d97706"/>
    <text x="65" y="86" text-anchor="middle" font-family="Arial, sans-serif" font-size="8" fill="#fff">bbox: x,y,w,h</text>
    <rect x="15" y="95" width="100" height="15" rx="2" fill="#f59e0b"/>
    <text x="65" y="106" text-anchor="middle" font-family="Arial, sans-serif" font-size="8" fill="#fff">objectness</text>
    <rect x="15" y="115" width="100" height="15" rx="2" fill="#fbbf24"/>
    <text x="65" y="126" text-anchor="middle" font-family="Arial, sans-serif" font-size="8" fill="#1e293b">class probs</text>
  </g>
  
  <!-- Arrow -->
  <path d="M690 130 L720 130" stroke="#fbbf24" stroke-width="2"/>
  <polygon points="720,125 735,130 720,135" fill="#fbbf24"/>
  
  <!-- Output -->
  <g transform="translate(740, 70)">
    <rect width="90" height="120" rx="8" fill="#1e293b" stroke="#10b981" stroke-width="2"/>
    <text x="45" y="25" text-anchor="middle" font-family="Arial, sans-serif" font-size="11" font-weight="bold" fill="#34d399">Output</text>
    
    <!-- Detected objects -->
    <rect x="10" y="35" width="70" height="20" rx="3" fill="#ef4444" opacity="0.8"/>
    <text x="45" y="49" text-anchor="middle" font-family="Arial, sans-serif" font-size="8" fill="#fff">person 0.95</text>
    <rect x="10" y="60" width="70" height="20" rx="3" fill="#22c55e" opacity="0.8"/>
    <text x="45" y="74" text-anchor="middle" font-family="Arial, sans-serif" font-size="8" fill="#fff">car 0.89</text>
    <rect x="10" y="85" width="70" height="20" rx="3" fill="#3b82f6" opacity="0.8"/>
    <text x="45" y="99" text-anchor="middle" font-family="Arial, sans-serif" font-size="8" fill="#fff">dog 0.92</text>
  </g>
  
  <!-- Bottom Info Boxes -->
  <g transform="translate(50, 220)">
    <rect width="180" height="130" rx="8" fill="#1e293b" stroke="#334155" stroke-width="2"/>
    <text x="90" y="25" text-anchor="middle" font-family="Arial, sans-serif" font-size="12" font-weight="bold" fill="#f8fafc">Key Features</text>
    <text x="15" y="50" font-family="Arial, sans-serif" font-size="10" fill="#60a5fa">• Single forward pass</text>
    <text x="15" y="70" font-family="Arial, sans-serif" font-size="10" fill="#34d399">• Real-time (30+ FPS)</text>
    <text x="15" y="90" font-family="Arial, sans-serif" font-size="10" fill="#fbbf24">• Grid-based detection</text>
    <text x="15" y="110" font-family="Arial, sans-serif" font-size="10" fill="#f87171">• Anchor boxes</text>
  </g>
  
  <g transform="translate(260, 220)">
    <rect width="180" height="130" rx="8" fill="#1e293b" stroke="#334155" stroke-width="2"/>
    <text x="90" y="25" text-anchor="middle" font-family="Arial, sans-serif" font-size="12" font-weight="bold" fill="#f8fafc">YOLO Evolution</text>
    <text x="15" y="50" font-family="Arial, sans-serif" font-size="10" fill="#94a3b8">YOLOv1: 45 FPS</text>
    <text x="15" y="70" font-family="Arial, sans-serif" font-size="10" fill="#94a3b8">YOLOv3: 51.5 mAP</text>
    <text x="15" y="90" font-family="Arial, sans-serif" font-size="10" fill="#94a3b8">YOLOv5: PyTorch</text>
    <text x="15" y="110" font-family="Arial, sans-serif" font-size="10" fill="#34d399">YOLOv8: SOTA 🚀</text>
  </g>
  
  <g transform="translate(470, 220)">
    <rect width="180" height="130" rx="8" fill="#1e293b" stroke="#334155" stroke-width="2"/>
    <text x="90" y="25" text-anchor="middle" font-family="Arial, sans-serif" font-size="12" font-weight="bold" fill="#f8fafc">Loss Function</text>
    <text x="15" y="55" font-family="Georgia, serif" font-size="11" fill="#fbbf24">L = λ_coord·L_box</text>
    <text x="15" y="75" font-family="Georgia, serif" font-size="11" fill="#fbbf24">  + λ_obj·L_obj</text>
    <text x="15" y="95" font-family="Georgia, serif" font-size="11" fill="#fbbf24">  + λ_cls·L_cls</text>
    <text x="15" y="120" font-family="Arial, sans-serif" font-size="9" fill="#64748b">CIoU + BCE losses</text>
  </g>
  
  <g transform="translate(680, 220)">
    <rect width="140" height="130" rx="8" fill="#22c55e" opacity="0.15" stroke="#22c55e" stroke-width="2"/>
    <text x="70" y="30" text-anchor="middle" font-family="Arial, sans-serif" font-size="13" font-weight="bold" fill="#34d399">Speed</text>
    <text x="70" y="60" text-anchor="middle" font-family="Arial, sans-serif" font-size="28" font-weight="bold" fill="#22c55e">140</text>
    <text x="70" y="80" text-anchor="middle" font-family="Arial, sans-serif" font-size="12" fill="#34d399">FPS</text>
    <text x="70" y="110" text-anchor="middle" font-family="Arial, sans-serif" font-size="10" fill="#64748b">YOLOv8n</text>
    <text x="70" y="125" text-anchor="middle" font-family="Arial, sans-serif" font-size="9" fill="#64748b">GPU inference</text>
  </g>
</svg>