<svg xmlns="http://www.w3.org/2000/svg" viewBox="0 0 900 400">
  <defs>
    <linearGradient id="patchGrad" x1="0%" y1="0%" x2="100%" y2="100%">
      <stop offset="0%" style="stop-color:#3b82f6"/>
      <stop offset="100%" style="stop-color:#1d4ed8"/>
    </linearGradient>
    <linearGradient id="attnGrad" x1="0%" y1="0%" x2="100%" y2="100%">
      <stop offset="0%" style="stop-color:#f59e0b"/>
      <stop offset="100%" style="stop-color:#d97706"/>
    </linearGradient>
    <linearGradient id="mlpGrad" x1="0%" y1="0%" x2="100%" y2="100%">
      <stop offset="0%" style="stop-color:#22c55e"/>
      <stop offset="100%" style="stop-color:#16a34a"/>
    </linearGradient>
    <filter id="glow">
      <feGaussianBlur stdDeviation="2" result="blur"/>
      <feMerge><feMergeNode in="blur"/><feMergeNode in="SourceGraphic"/></feMerge>
    </filter>
  </defs>
  
  <rect width="900" height="400" fill="#0f172a"/>
  
  <text x="450" y="30" text-anchor="middle" font-family="Arial, sans-serif" font-size="22" font-weight="bold" fill="#f8fafc">Vision Transformer (ViT) Architecture</text>
  
  <!-- Input Image -->
  <g transform="translate(30, 80)">
    <rect width="90" height="90" rx="6" fill="#334155" stroke="#475569" stroke-width="2"/>
    <!-- Patch grid -->
    <line x1="30" y1="0" x2="30" y2="90" stroke="#60a5fa" stroke-width="1"/>
    <line x1="60" y1="0" x2="60" y2="90" stroke="#60a5fa" stroke-width="1"/>
    <line x1="0" y1="30" x2="90" y2="30" stroke="#60a5fa" stroke-width="1"/>
    <line x1="0" y1="60" x2="90" y2="60" stroke="#60a5fa" stroke-width="1"/>
    <text x="45" y="110" text-anchor="middle" font-family="Arial, sans-serif" font-size="10" fill="#94a3b8">224×224</text>
    <text x="45" y="125" text-anchor="middle" font-family="Arial, sans-serif" font-size="9" fill="#64748b">Image</text>
  </g>
  
  <!-- Arrow -->
  <path d="M125 125 L155 125" stroke="#60a5fa" stroke-width="2"/>
  <polygon points="155,120 170,125 155,130" fill="#60a5fa"/>
  
  <!-- Patch Embedding -->
  <g transform="translate(175, 70)">
    <rect width="100" height="110" rx="8" fill="url(#patchGrad)" filter="url(#glow)"/>
    <text x="50" y="30" text-anchor="middle" font-family="Arial, sans-serif" font-size="11" font-weight="bold" fill="#fff">Patch</text>
    <text x="50" y="50" text-anchor="middle" font-family="Arial, sans-serif" font-size="11" font-weight="bold" fill="#fff">Embed</text>
    <text x="50" y="75" text-anchor="middle" font-family="Arial, sans-serif" font-size="9" fill="#dbeafe">16×16 → 768</text>
    <text x="50" y="95" text-anchor="middle" font-family="Arial, sans-serif" font-size="9" fill="#dbeafe">196 patches</text>
  </g>
  
  <!-- Arrow -->
  <path d="M280 125 L310 125" stroke="#60a5fa" stroke-width="2"/>
  <polygon points="310,120 325,125 310,130" fill="#60a5fa"/>
  
  <!-- Position + CLS Token -->
  <g transform="translate(330, 65)">
    <rect width="90" height="120" rx="8" fill="#1e293b" stroke="#a78bfa" stroke-width="2"/>
    <text x="45" y="25" text-anchor="middle" font-family="Arial, sans-serif" font-size="10" font-weight="bold" fill="#a78bfa">+ Position</text>
    
    <!-- CLS token -->
    <rect x="10" y="40" width="70" height="25" rx="4" fill="#ec4899"/>
    <text x="45" y="57" text-anchor="middle" font-family="Arial, sans-serif" font-size="9" font-weight="bold" fill="#fff">[CLS]</text>
    
    <!-- Patch tokens -->
    <rect x="10" y="70" width="70" height="40" rx="4" fill="#7c3aed" opacity="0.6"/>
    <text x="45" y="93" text-anchor="middle" font-family="Arial, sans-serif" font-size="9" fill="#fff">Patches</text>
  </g>
  
  <!-- Arrow -->
  <path d="M425 125 L455 125" stroke="#a78bfa" stroke-width="2"/>
  <polygon points="455,120 470,125 455,130" fill="#a78bfa"/>
  
  <!-- Transformer Encoder -->
  <g transform="translate(475, 50)">
    <rect width="180" height="260" rx="10" fill="#1e293b" stroke="#334155" stroke-width="2"/>
    <text x="90" y="25" text-anchor="middle" font-family="Arial, sans-serif" font-size="12" font-weight="bold" fill="#f8fafc">Transformer Encoder</text>
    <text x="90" y="42" text-anchor="middle" font-family="Arial, sans-serif" font-size="10" fill="#64748b">×12 Layers</text>
    
    <!-- Layer Norm -->
    <rect x="20" y="55" width="140" height="25" rx="4" fill="#475569"/>
    <text x="90" y="72" text-anchor="middle" font-family="Arial, sans-serif" font-size="9" fill="#fff">Layer Norm</text>
    
    <!-- MHSA -->
    <rect x="20" y="90" width="140" height="45" rx="6" fill="url(#attnGrad)" filter="url(#glow)"/>
    <text x="90" y="110" text-anchor="middle" font-family="Arial, sans-serif" font-size="10" font-weight="bold" fill="#fff">Multi-Head</text>
    <text x="90" y="125" text-anchor="middle" font-family="Arial, sans-serif" font-size="10" font-weight="bold" fill="#fff">Self-Attention</text>
    
    <!-- Skip connection indicator -->
    <path d="M165 80 Q180 80 180 130 Q180 140 165 140" stroke="#fbbf24" stroke-width="2" fill="none" stroke-dasharray="4,2"/>
    
    <!-- Layer Norm -->
    <rect x="20" y="150" width="140" height="25" rx="4" fill="#475569"/>
    <text x="90" y="167" text-anchor="middle" font-family="Arial, sans-serif" font-size="9" fill="#fff">Layer Norm</text>
    
    <!-- MLP -->
    <rect x="20" y="185" width="140" height="45" rx="6" fill="url(#mlpGrad)" filter="url(#glow)"/>
    <text x="90" y="205" text-anchor="middle" font-family="Arial, sans-serif" font-size="10" font-weight="bold" fill="#fff">MLP</text>
    <text x="90" y="220" text-anchor="middle" font-family="Arial, sans-serif" font-size="9" fill="#d1fae5">768 → 3072 → 768</text>
    
    <!-- Skip connection indicator -->
    <path d="M165 175 Q180 175 180 210 Q180 235 165 235" stroke="#34d399" stroke-width="2" fill="none" stroke-dasharray="4,2"/>
  </g>
  
  <!-- Arrow -->
  <path d="M660 125 L690 125" stroke="#10b981" stroke-width="2"/>
  <polygon points="690,120 705,125 690,130" fill="#10b981"/>
  
  <!-- Classification Head -->
  <g transform="translate(710, 70)">
    <rect width="80" height="50" rx="6" fill="#ec4899" filter="url(#glow)"/>
    <text x="40" y="22" text-anchor="middle" font-family="Arial, sans-serif" font-size="10" font-weight="bold" fill="#fff">MLP</text>
    <text x="40" y="38" text-anchor="middle" font-family="Arial, sans-serif" font-size="9" fill="#fce7f3">Head</text>
    
    <text x="40" y="65" text-anchor="middle" font-family="Arial, sans-serif" font-size="9" fill="#94a3b8">[CLS] → Class</text>
  </g>
  
  <!-- Output -->
  <g transform="translate(710, 140)">
    <rect width="80" height="50" rx="6" fill="#0f172a" stroke="#10b981" stroke-width="2"/>
    <text x="40" y="22" text-anchor="middle" font-family="Arial, sans-serif" font-size="10" font-weight="bold" fill="#34d399">Cat</text>
    <text x="40" y="38" text-anchor="middle" font-family="Arial, sans-serif" font-size="14" fill="#10b981">🐱</text>
  </g>
  
  <!-- Formula Box -->
  <g transform="translate(50, 220)">
    <rect width="350" height="150" rx="10" fill="#1e293b" stroke="#334155" stroke-width="2"/>
    <text x="175" y="25" text-anchor="middle" font-family="Arial, sans-serif" font-size="12" font-weight="bold" fill="#f8fafc">Key Equations</text>
    
    <text x="20" y="55" font-family="Georgia, serif" font-size="12" fill="#fbbf24">Attention(Q,K,V) = softmax(QKᵀ/√d)·V</text>
    <text x="20" y="80" font-family="Georgia, serif" font-size="12" fill="#a78bfa">z₀ = [x_class; x_p¹E; ...x_pⁿE] + E_pos</text>
    <text x="20" y="105" font-family="Georgia, serif" font-size="12" fill="#34d399">y = LN(z_L⁰)</text>
    
    <text x="20" y="135" font-family="Arial, sans-serif" font-size="10" fill="#64748b">where E ∈ ℝ^(P²·C)×D is patch projection</text>
  </g>
  
  <!-- Stats -->
  <g transform="translate(420, 330)">
    <rect x="0" width="80" height="40" rx="4" fill="#3b82f6" opacity="0.2"/>
    <text x="40" y="18" text-anchor="middle" font-family="Arial, sans-serif" font-size="10" fill="#60a5fa">ViT-B/16</text>
    <text x="40" y="33" text-anchor="middle" font-family="Arial, sans-serif" font-size="9" fill="#94a3b8">86M params</text>
    
    <rect x="100" width="80" height="40" rx="4" fill="#22c55e" opacity="0.2"/>
    <text x="140" y="18" text-anchor="middle" font-family="Arial, sans-serif" font-size="10" fill="#34d399">ViT-L/16</text>
    <text x="140" y="33" text-anchor="middle" font-family="Arial, sans-serif" font-size="9" fill="#94a3b8">307M params</text>
    
    <rect x="200" width="80" height="40" rx="4" fill="#f59e0b" opacity="0.2"/>
    <text x="240" y="18" text-anchor="middle" font-family="Arial, sans-serif" font-size="10" fill="#fbbf24">ViT-H/14</text>
    <text x="240" y="33" text-anchor="middle" font-family="Arial, sans-serif" font-size="9" fill="#94a3b8">632M params</text>
  </g>
</svg>